# xmcd
#
# Track frame offsets:
#	150
#	26910
#	51247
#	55182
#	86300
#	97112
#	123040
#	140322
#	153600
#	169417
#	187635
#	208175
#	214162
#	228990
#	232877
#	254547
#
# Disc length: 3569 seconds
#
# Revision: 1
# Processed by: cddbd v1.4b41PL3 Copyright (c) Steve Scherf et al.
# Submitted via: audiograbber 1.80
#
DISCID=da0def10
DTITLE=Don Edwards, Waddie Mitchell and Fort Worth Symphony Orchestra  - A Prai
DTITLE=rie Portrait
DYEAR=1900
DGENRE=
TTITLE0=Texas Triology
TTITLE1=Roundup In The Spring
TTITLE2=Sage and Cedar I
TTITLE3=Home On The Range
TTITLE4=Commutin'
TTITLE5=Annie Laurie - Bad Half Hour
TTITLE6=Irish Tune From County Derry
TTITLE7=Santa Rosa Serenade
TTITLE8=Throwback
TTITLE9=West Of Yesterday
TTITLE10=(Ghost) Riders In The Sky
TTITLE11=Horses, Dogs And Cowboys
TTITLE12=Cowboy Love Song
TTITLE13=Sage and Cedar II
TTITLE14=Shenandoah
TTITLE15=Around The Campfire From A Prairie Portrait
EXTD=
EXTT0=(Yellow Rose of Texas, Streets of Laredo, Deep in the Heart of Texas)
EXTT1=
EXTT2=
EXTT3=
EXTT4=
EXTT5=
EXTT6=(Danny Boy)
EXTT7=
EXTT8=
EXTT9=
EXTT10=
EXTT11=
EXTT12=
EXTT13=
EXTT14=
EXTT15=
PLAYORDER=
